<?xml version="1.0" encoding="UTF-8"?>
<svg id="Layer_2" data-name="Layer 2" xmlns="http://www.w3.org/2000/svg" xmlns:xlink="http://www.w3.org/1999/xlink" viewBox="0 0 58.55 66.24">
  <defs>
    <style>
      .cls-1 {
        fill: none;
      }

      .cls-1, .cls-2 {
        stroke-width: 0px;
      }

      .cls-2 {
        fill: #ffe1cc;
      }
    </style>
    <clipPath id="clippath">
      <rect class="cls-1" x="282.46" y="-306.26" width="1920" height="6094.06"/>
    </clipPath>
    <clipPath id="clippath-1">
      <polygon class="cls-1" points="282.46 731.04 282.46 1220.91 282.46 1444.26 282.46 2220.7 2202.46 2220.7 2202.46 1444.26 2202.46 1220.91 2202.46 731.04 282.46 731.04"/>
    </clipPath>
    <clipPath id="clippath-2">
      <rect class="cls-1" x="282.46" y="-306.19" width="1920" height="6094.06"/>
    </clipPath>
  </defs>
  <path class="cls-2" d="M20.47,11.25l7.73,5.47c-6.44,8.44-9.76,17.53-9.98,27.26v13.74H5.45v-12.02c0-6.58,1.34-12.91,4.02-18.99,2.68-6.08,6.35-11.23,11-15.45ZM47.4,11.25l7.73,5.47c-6.44,8.44-9.77,17.53-9.98,27.26v13.74h-12.77v-12.02c0-6.58,1.34-12.91,4.02-18.99,2.68-6.08,6.35-11.23,11-15.45Z"/>
</svg>