<?xml version="1.0" encoding="UTF-8"?>
<svg id="Layer_2" data-name="Layer 2" xmlns="http://www.w3.org/2000/svg" xmlns:xlink="http://www.w3.org/1999/xlink" viewBox="0 0 27.08 28.4">
  <defs>
    <style>
      .cls-1 {
        fill: none;
      }

      .cls-1, .cls-2 {
        stroke-width: 0px;
      }

      .cls-2 {
        fill: #4276f6;
      }
    </style>
    <clipPath id="clippath">
      <rect class="cls-1" x="474.64" y="-203.46" width="1920" height="6094.06"/>
    </clipPath>
    <clipPath id="clippath-1">
      <polygon class="cls-1" points="474.64 833.84 474.64 1323.71 474.64 1547.06 474.64 2323.5 2394.64 2323.5 2394.64 1547.06 2394.64 1323.71 2394.64 833.84 474.64 833.84"/>
    </clipPath>
    <clipPath id="clippath-2">
      <rect class="cls-1" x="474.64" y="-203.39" width="1920" height="6094.06"/>
    </clipPath>
  </defs>
  <path class="cls-2" d="M5.29,21.28c0-1.31,0-2.62,0-3.92,0-.74-.42-1.16-1.16-1.18-.49,0-.98.02-1.47-.02-.91-.07-1.48-1.02-1.11-1.81.07-.15.18-.29.29-.42,3.59-3.99,7.19-7.98,10.78-11.97.69-.76,1.64-.76,2.33,0,3.59,3.99,7.18,7.99,10.78,11.98.37.41.5.87.3,1.38-.21.53-.63.82-1.2.85-.43.02-.87.01-1.31.01-.86,0-1.25.39-1.25,1.24,0,2.58,0,5.17,0,7.75,0,.95-.55,1.5-1.5,1.51-.71,0-1.43,0-2.14,0-.98,0-1.53-.54-1.53-1.51,0-2.2,0-4.4,0-6.61,0-.79-.41-1.2-1.19-1.21-1.29,0-2.57,0-3.86,0-.78,0-1.19.42-1.19,1.21,0,2.22,0,4.45,0,6.67,0,.87-.56,1.44-1.43,1.45-.9,0-1.81,0-2.71,0-.85,0-1.42-.58-1.42-1.43,0-1.33,0-2.66,0-3.99Z"/>
</svg>