<?xml version="1.0" encoding="UTF-8"?>
<svg id="Layer_2" data-name="Layer 2" xmlns="http://www.w3.org/2000/svg" xmlns:xlink="http://www.w3.org/1999/xlink" viewBox="0 0 20.35 20.88">
  <defs>
    <style>
      .cls-1, .cls-2 {
        stroke-width: 0px;
      }

      .cls-2 {
        fill: none;
      }
    </style>
    <clipPath id="clippath">
      <rect class="cls-2" x="280.43" y="-203.4" width="1920" height="6094.06"/>
    </clipPath>
    <clipPath id="clippath-1">
      <polygon class="cls-2" points="280.43 833.9 280.43 1323.76 280.43 1547.12 280.43 2323.55 2200.43 2323.55 2200.43 1547.12 2200.43 1323.76 2200.43 833.9 280.43 833.9"/>
    </clipPath>
    <clipPath id="clippath-2">
      <rect class="cls-2" x="280.43" y="-203.33" width="1920" height="6094.06"/>
    </clipPath>
  </defs>
  <path class="cls-1" d="M19.33,17.04l-4.94-3.78c.68-1.1,1.08-2.39,1.08-3.78,0-3.99-3.24-7.23-7.23-7.23-3.99,0-7.23,3.24-7.23,7.23,0,3.99,3.24,7.23,7.23,7.23,1.88,0,3.59-.72,4.87-1.9l5,3.82,1.21-1.59ZM8.25,14.71c-1.45,0-2.75-.58-3.7-1.53-.95-.95-1.53-2.25-1.53-3.7,0-1.45.58-2.75,1.53-3.7.95-.95,2.25-1.53,3.7-1.53,1.45,0,2.75.58,3.7,1.53.95.95,1.53,2.25,1.53,3.7,0,1.45-.58,2.75-1.53,3.7-.95.95-2.25,1.53-3.7,1.53Z"/>
</svg>